M48
;Layer_Color=9474304
;FILE_FORMAT=4:4
METRIC,LZ
;TYPE=PLATED
T1F00S00C0.6000
T2F00S00C0.9000
%
T01
X0035052Y-0027305
X-0010922Y-0023241
X-0009271Y-0016891
X-0009144Y-0013589
X-0013716Y-0012446
X-0016891Y-0016891
X-0007112Y-000762
X-0008382Y0002667
X00078105Y-00041275
X0008763Y-0009779
X0006858Y-0015875
X001397Y-0019431
X0035052Y-0021717
Y-0024765
Y-0016129
Y-0008128
X002667Y0005969
X0019304Y0008128
Y0010795
X0020447Y00127
X0018161Y0002159
X0017018Y0014224
X0014986Y0013335
X000127Y0016129
X-0016637Y0015367
X-0022479Y0018669
X-0024892
X-0027051
Y0021717
X-0024892
Y0024257
X-0027051
Y0026924
X-0024892
X-0022479
T02
X-002667Y-0020701
X-002413
X-002159
Y-0018161
X-002413
X-002667
X-0004345Y-0017907
X-00037462Y-001354
X-00062862
Y-0011
X-00037462
X-0011Y-00063243
Y-00037843
Y-00012443
Y00012957
Y00038357
Y00063757
X-001354
Y00038357
Y00012957
Y-00012443
Y-00037843
Y-00063243
X-0020193Y0005207
X-0022733
Y0007747
X-0020193
Y0010287
X-0022733
Y0012827
X-0020193
X-00062868Y0011
X-00037468
X-00012068
X00013332
X00038732
X00064132
X0011Y00063763
Y00038363
Y00012963
Y-00012437
Y-00037837
Y-00063237
X001354
Y-00037837
Y-00012437
Y00012963
Y00038363
Y00063763
X002413Y0009398
Y0011938
X002667
Y0009398
X0013589Y-0010541
X0011049
X00064138Y-0011
X00038738
X00013338
X-00012062
Y-001354
X00013338
X00038738
X00064138
X0000535Y-0017907
X00013332Y001354
X00038732
X00064132
X-00012068
X002413Y0014478
Y0017018
X002667
Y0014478
X-00037468Y001354
X-00062868
X-0012954Y0013589
Y0016129
X-0020193Y0015367
X-0022733
X-0011811Y0027432
X-0009271
M30
