%FSLAX44Y44*%
%MOMM*%
G71*
G01*
G75*
G04 Layer_Physical_Order=2*
G04 Layer_Color=16711680*
%ADD10R,1.5000X1.1000*%
%ADD11R,1.1000X1.5000*%
%ADD12R,1.7500X3.5000*%
%ADD13R,1.7500X1.0500*%
%ADD14R,1.7500X1.0500*%
%ADD15R,1.4500X0.5500*%
%ADD16R,0.8000X0.9000*%
G04:AMPARAMS|DCode=17|XSize=2.1mm|YSize=1.5mm|CornerRadius=0.375mm|HoleSize=0mm|Usage=FLASHONLY|Rotation=0.000|XOffset=0mm|YOffset=0mm|HoleType=Round|Shape=RoundedRectangle|*
%AMROUNDEDRECTD17*
21,1,2.1000,0.7500,0,0,0.0*
21,1,1.3500,1.5000,0,0,0.0*
1,1,0.7500,0.6750,-0.3750*
1,1,0.7500,-0.6750,-0.3750*
1,1,0.7500,-0.6750,0.3750*
1,1,0.7500,0.6750,0.3750*
%
%ADD17ROUNDEDRECTD17*%
G04:AMPARAMS|DCode=18|XSize=1.3mm|YSize=1.55mm|CornerRadius=0.325mm|HoleSize=0mm|Usage=FLASHONLY|Rotation=0.000|XOffset=0mm|YOffset=0mm|HoleType=Round|Shape=RoundedRectangle|*
%AMROUNDEDRECTD18*
21,1,1.3000,0.9000,0,0,0.0*
21,1,0.6500,1.5500,0,0,0.0*
1,1,0.6500,0.3250,-0.4500*
1,1,0.6500,-0.3250,-0.4500*
1,1,0.6500,-0.3250,0.4500*
1,1,0.6500,0.3250,0.4500*
%
%ADD18ROUNDEDRECTD18*%
G04:AMPARAMS|DCode=19|XSize=2.39mm|YSize=1.09mm|CornerRadius=0.2725mm|HoleSize=0mm|Usage=FLASHONLY|Rotation=0.000|XOffset=0mm|YOffset=0mm|HoleType=Round|Shape=RoundedRectangle|*
%AMROUNDEDRECTD19*
21,1,2.3900,0.5450,0,0,0.0*
21,1,1.8450,1.0900,0,0,0.0*
1,1,0.5450,0.9225,-0.2725*
1,1,0.5450,-0.9225,-0.2725*
1,1,0.5450,-0.9225,0.2725*
1,1,0.5450,0.9225,0.2725*
%
%ADD19ROUNDEDRECTD19*%
%ADD20O,1.5000X0.6000*%
%ADD21R,1.0000X0.9000*%
%ADD22O,1.8000X0.3000*%
%ADD23O,0.3000X1.8000*%
G04:AMPARAMS|DCode=24|XSize=2mm|YSize=1.6mm|CornerRadius=0.4mm|HoleSize=0mm|Usage=FLASHONLY|Rotation=180.000|XOffset=0mm|YOffset=0mm|HoleType=Round|Shape=RoundedRectangle|*
%AMROUNDEDRECTD24*
21,1,2.0000,0.8000,0,0,180.0*
21,1,1.2000,1.6000,0,0,180.0*
1,1,0.8000,-0.6000,0.4000*
1,1,0.8000,0.6000,0.4000*
1,1,0.8000,0.6000,-0.4000*
1,1,0.8000,-0.6000,-0.4000*
%
%ADD24ROUNDEDRECTD24*%
%ADD25C,0.3000*%
%ADD26C,1.0000*%
%ADD27C,0.2540*%
%ADD28R,10.7950X11.4300*%
%ADD29R,1.5000X1.5000*%
%ADD30C,1.5000*%
%ADD31R,1.5000X1.5000*%
%ADD32P,1.6236X8X22.5*%
%ADD33P,2.1648X8X22.5*%
%ADD34C,2.0000*%
%ADD35C,1.1000*%
G36*
X287261Y-283431D02*
X-283431D01*
Y283431D01*
X-123817D01*
X-123408Y282229D01*
X-124886Y281095D01*
X-126408Y279111D01*
X-127366Y276800D01*
X-127692Y274320D01*
X-127366Y271840D01*
X-126408Y269529D01*
X-124886Y267545D01*
X-122901Y266022D01*
X-120590Y265065D01*
X-118110Y264738D01*
X-115630Y265065D01*
X-113319Y266022D01*
X-111334Y267545D01*
X-109812Y269529D01*
X-108855Y271840D01*
X-108528Y274320D01*
X-108855Y276800D01*
X-109812Y279111D01*
X-111334Y281095D01*
X-113319Y282618D01*
X-113157Y283431D01*
X-102210D01*
Y264820D01*
X-83210D01*
Y283431D01*
X287261D01*
Y-283431D01*
D02*
G37*
%LPC*%
G36*
X-126360Y-15443D02*
X-132400D01*
Y-21483D01*
X-130609Y-20741D01*
X-128625Y-19218D01*
X-127102Y-17234D01*
X-126360Y-15443D01*
D02*
G37*
G36*
X-138400D02*
X-144440D01*
X-143698Y-17234D01*
X-142176Y-19218D01*
X-140191Y-20741D01*
X-138400Y-21483D01*
Y-15443D01*
D02*
G37*
G36*
X110000Y-2855D02*
X107520Y-3182D01*
X105209Y-4139D01*
X103225Y-5662D01*
X101702Y-7646D01*
X100745Y-9957D01*
X100418Y-12437D01*
X100745Y-14917D01*
X101702Y-17228D01*
X103225Y-19212D01*
X105209Y-20735D01*
X107520Y-21692D01*
X110000Y-22019D01*
X112480Y-21692D01*
X114791Y-20735D01*
X116776Y-19212D01*
X118298Y-17228D01*
X119256Y-14917D01*
X119582Y-12437D01*
X119256Y-9957D01*
X118298Y-7646D01*
X116776Y-5662D01*
X114791Y-4139D01*
X112480Y-3182D01*
X110000Y-2855D01*
D02*
G37*
G36*
X135400D02*
X132920Y-3182D01*
X130609Y-4139D01*
X128625Y-5662D01*
X127102Y-7646D01*
X126145Y-9957D01*
X125818Y-12437D01*
X126145Y-14917D01*
X127102Y-17228D01*
X128625Y-19212D01*
X130609Y-20735D01*
X132920Y-21692D01*
X135400Y-22019D01*
X137880Y-21692D01*
X140191Y-20735D01*
X142176Y-19212D01*
X143698Y-17228D01*
X144656Y-14917D01*
X144982Y-12437D01*
X144656Y-9957D01*
X143698Y-7646D01*
X142176Y-5662D01*
X140191Y-4139D01*
X137880Y-3182D01*
X135400Y-2855D01*
D02*
G37*
G36*
X-110000Y22539D02*
X-112480Y22212D01*
X-114791Y21255D01*
X-116776Y19732D01*
X-118298Y17748D01*
X-119256Y15437D01*
X-119582Y12957D01*
X-119256Y10477D01*
X-118298Y8166D01*
X-116776Y6181D01*
X-114791Y4659D01*
X-112480Y3701D01*
X-110000Y3375D01*
X-107520Y3701D01*
X-105209Y4659D01*
X-103225Y6181D01*
X-101702Y8166D01*
X-100745Y10477D01*
X-100418Y12957D01*
X-100745Y15437D01*
X-101702Y17748D01*
X-103225Y19732D01*
X-105209Y21255D01*
X-107520Y22212D01*
X-110000Y22539D01*
D02*
G37*
G36*
X110000Y22545D02*
X107520Y22218D01*
X105209Y21261D01*
X103225Y19739D01*
X101702Y17754D01*
X100745Y15443D01*
X100418Y12963D01*
X100745Y10483D01*
X101702Y8172D01*
X103225Y6188D01*
X105209Y4665D01*
X107520Y3708D01*
X110000Y3381D01*
X112480Y3708D01*
X114791Y4665D01*
X116776Y6188D01*
X118298Y8172D01*
X119256Y10483D01*
X119582Y12963D01*
X119256Y15443D01*
X118298Y17754D01*
X116776Y19739D01*
X114791Y21261D01*
X112480Y22218D01*
X110000Y22545D01*
D02*
G37*
G36*
X-135400Y22539D02*
X-137880Y22212D01*
X-140191Y21255D01*
X-142176Y19732D01*
X-143698Y17748D01*
X-144656Y15437D01*
X-144982Y12957D01*
X-144656Y10477D01*
X-143698Y8166D01*
X-142176Y6181D01*
X-140191Y4659D01*
X-137880Y3701D01*
X-135400Y3375D01*
X-132920Y3701D01*
X-130609Y4659D01*
X-128625Y6181D01*
X-127102Y8166D01*
X-126145Y10477D01*
X-125818Y12957D01*
X-126145Y15437D01*
X-127102Y17748D01*
X-128625Y19732D01*
X-130609Y21255D01*
X-132920Y22212D01*
X-135400Y22539D01*
D02*
G37*
G36*
X-138400Y-3403D02*
X-140191Y-4145D01*
X-142176Y-5668D01*
X-143698Y-7652D01*
X-144440Y-9443D01*
X-138400D01*
Y-3403D01*
D02*
G37*
G36*
X-132400D02*
Y-9443D01*
X-126360D01*
X-127102Y-7652D01*
X-128625Y-5668D01*
X-130609Y-4145D01*
X-132400Y-3403D01*
D02*
G37*
G36*
X-110000Y-2861D02*
X-112480Y-3188D01*
X-114791Y-4145D01*
X-116776Y-5668D01*
X-118298Y-7652D01*
X-119256Y-9963D01*
X-119582Y-12443D01*
X-119256Y-14923D01*
X-118298Y-17234D01*
X-116776Y-19218D01*
X-114791Y-20741D01*
X-112480Y-21699D01*
X-110000Y-22025D01*
X-107520Y-21699D01*
X-105209Y-20741D01*
X-103225Y-19218D01*
X-101702Y-17234D01*
X-100745Y-14923D01*
X-100418Y-12443D01*
X-100745Y-9963D01*
X-101702Y-7652D01*
X-103225Y-5668D01*
X-105209Y-4145D01*
X-107520Y-3188D01*
X-110000Y-2861D01*
D02*
G37*
G36*
Y-53661D02*
X-112480Y-53988D01*
X-114791Y-54945D01*
X-116776Y-56468D01*
X-118298Y-58452D01*
X-119256Y-60763D01*
X-119582Y-63243D01*
X-119256Y-65723D01*
X-118298Y-68034D01*
X-116776Y-70019D01*
X-114791Y-71541D01*
X-112480Y-72498D01*
X-110000Y-72825D01*
X-107520Y-72498D01*
X-105209Y-71541D01*
X-103225Y-70019D01*
X-101702Y-68034D01*
X-100745Y-65723D01*
X-100418Y-63243D01*
X-100745Y-60763D01*
X-101702Y-58452D01*
X-103225Y-56468D01*
X-105209Y-54945D01*
X-107520Y-53988D01*
X-110000Y-53661D01*
D02*
G37*
G36*
X135400Y-53655D02*
X132920Y-53981D01*
X130609Y-54939D01*
X128625Y-56462D01*
X127102Y-58446D01*
X126145Y-60757D01*
X125818Y-63237D01*
X126145Y-65717D01*
X127102Y-68028D01*
X128625Y-70012D01*
X130609Y-71535D01*
X132920Y-72492D01*
X135400Y-72819D01*
X137880Y-72492D01*
X140191Y-71535D01*
X142176Y-70012D01*
X143698Y-68028D01*
X144656Y-65717D01*
X144982Y-63237D01*
X144656Y-60757D01*
X143698Y-58446D01*
X142176Y-56462D01*
X140191Y-54939D01*
X137880Y-53981D01*
X135400Y-53655D01*
D02*
G37*
G36*
X78105Y-31693D02*
X75625Y-32020D01*
X73314Y-32977D01*
X71329Y-34499D01*
X69807Y-36484D01*
X68850Y-38795D01*
X68523Y-41275D01*
X68850Y-43755D01*
X69807Y-46066D01*
X71329Y-48050D01*
X73314Y-49573D01*
X75625Y-50531D01*
X78105Y-50857D01*
X80585Y-50531D01*
X81807Y-50024D01*
X84061Y-52278D01*
Y-88985D01*
X82839Y-89492D01*
X80855Y-91014D01*
X79332Y-92999D01*
X78375Y-95310D01*
X78048Y-97790D01*
X78375Y-100270D01*
X79332Y-102581D01*
X80855Y-104565D01*
X82839Y-106088D01*
X85150Y-107045D01*
X87630Y-107372D01*
X90110Y-107045D01*
X92421Y-106088D01*
X94405Y-104565D01*
X95928Y-102581D01*
X96885Y-100270D01*
X97212Y-97790D01*
X96885Y-95310D01*
X95928Y-92999D01*
X94405Y-91014D01*
X92421Y-89492D01*
X91199Y-88985D01*
Y-50800D01*
X90927Y-49434D01*
X90153Y-48277D01*
X86854Y-44977D01*
X87360Y-43755D01*
X87687Y-41275D01*
X87360Y-38795D01*
X86403Y-36484D01*
X84880Y-34499D01*
X82896Y-32977D01*
X80585Y-32020D01*
X78105Y-31693D01*
D02*
G37*
G36*
X-135400Y-53661D02*
X-137880Y-53988D01*
X-140191Y-54945D01*
X-142176Y-56468D01*
X-143698Y-58452D01*
X-144656Y-60763D01*
X-144982Y-63243D01*
X-144656Y-65723D01*
X-143698Y-68034D01*
X-142176Y-70019D01*
X-140191Y-71541D01*
X-137880Y-72498D01*
X-135400Y-72825D01*
X-132920Y-72498D01*
X-130609Y-71541D01*
X-128625Y-70019D01*
X-127102Y-68034D01*
X-126145Y-65723D01*
X-125818Y-63243D01*
X-126145Y-60763D01*
X-127102Y-58452D01*
X-128625Y-56468D01*
X-130609Y-54945D01*
X-132920Y-53988D01*
X-135400Y-53661D01*
D02*
G37*
G36*
X119500Y-53737D02*
X100500D01*
Y-72737D01*
X119500D01*
Y-53737D01*
D02*
G37*
G36*
X110000Y-28255D02*
X107520Y-28582D01*
X105209Y-29539D01*
X103225Y-31061D01*
X101702Y-33046D01*
X100745Y-35357D01*
X100418Y-37837D01*
X100745Y-40317D01*
X101702Y-42628D01*
X103225Y-44612D01*
X105209Y-46135D01*
X107520Y-47092D01*
X110000Y-47419D01*
X112480Y-47092D01*
X114791Y-46135D01*
X116776Y-44612D01*
X118298Y-42628D01*
X119256Y-40317D01*
X119582Y-37837D01*
X119256Y-35357D01*
X118298Y-33046D01*
X116776Y-31061D01*
X114791Y-29539D01*
X112480Y-28582D01*
X110000Y-28255D01*
D02*
G37*
G36*
X135400D02*
X132920Y-28582D01*
X130609Y-29539D01*
X128625Y-31061D01*
X127102Y-33046D01*
X126145Y-35357D01*
X125818Y-37837D01*
X126145Y-40317D01*
X127102Y-42628D01*
X128625Y-44612D01*
X130609Y-46135D01*
X132920Y-47092D01*
X135400Y-47419D01*
X137880Y-47092D01*
X140191Y-46135D01*
X142176Y-44612D01*
X143698Y-42628D01*
X144656Y-40317D01*
X144982Y-37837D01*
X144656Y-35357D01*
X143698Y-33046D01*
X142176Y-31061D01*
X140191Y-29539D01*
X137880Y-28582D01*
X135400Y-28255D01*
D02*
G37*
G36*
X-135400Y-28261D02*
X-137880Y-28588D01*
X-140191Y-29545D01*
X-142176Y-31068D01*
X-143698Y-33052D01*
X-144656Y-35363D01*
X-144982Y-37843D01*
X-144656Y-40323D01*
X-143698Y-42634D01*
X-142176Y-44619D01*
X-140191Y-46141D01*
X-137880Y-47098D01*
X-135400Y-47425D01*
X-132920Y-47098D01*
X-130609Y-46141D01*
X-128625Y-44619D01*
X-127102Y-42634D01*
X-126145Y-40323D01*
X-125818Y-37843D01*
X-126145Y-35363D01*
X-127102Y-33052D01*
X-128625Y-31068D01*
X-130609Y-29545D01*
X-132920Y-28588D01*
X-135400Y-28261D01*
D02*
G37*
G36*
X-110000D02*
X-112480Y-28588D01*
X-114791Y-29545D01*
X-116776Y-31068D01*
X-118298Y-33052D01*
X-119256Y-35363D01*
X-119582Y-37843D01*
X-119256Y-40323D01*
X-118298Y-42634D01*
X-116776Y-44619D01*
X-114791Y-46141D01*
X-112480Y-47098D01*
X-110000Y-47425D01*
X-107520Y-47098D01*
X-105209Y-46141D01*
X-103225Y-44619D01*
X-101702Y-42634D01*
X-100745Y-40323D01*
X-100418Y-37843D01*
X-100745Y-35363D01*
X-101702Y-33052D01*
X-103225Y-31068D01*
X-105209Y-29545D01*
X-107520Y-28588D01*
X-110000Y-28261D01*
D02*
G37*
G36*
X110000Y73345D02*
X107520Y73018D01*
X105209Y72061D01*
X103225Y70539D01*
X101702Y68554D01*
X100745Y66243D01*
X100418Y63763D01*
X100745Y61283D01*
X101702Y58972D01*
X103225Y56988D01*
X105209Y55465D01*
X107520Y54508D01*
X110000Y54181D01*
X112480Y54508D01*
X114791Y55465D01*
X116776Y56988D01*
X118298Y58972D01*
X119256Y61283D01*
X119582Y63763D01*
X119256Y66243D01*
X118298Y68554D01*
X116776Y70539D01*
X114791Y72061D01*
X112480Y73018D01*
X110000Y73345D01*
D02*
G37*
G36*
X135400D02*
X132920Y73018D01*
X130609Y72061D01*
X128625Y70539D01*
X127102Y68554D01*
X126145Y66243D01*
X125818Y63763D01*
X126145Y61283D01*
X127102Y58972D01*
X128625Y56988D01*
X130609Y55465D01*
X132920Y54508D01*
X135400Y54181D01*
X137880Y54508D01*
X140191Y55465D01*
X142176Y56988D01*
X143698Y58972D01*
X144656Y61283D01*
X144982Y63763D01*
X144656Y66243D01*
X143698Y68554D01*
X142176Y70539D01*
X140191Y72061D01*
X137880Y73018D01*
X135400Y73345D01*
D02*
G37*
G36*
X275740Y56690D02*
X269700D01*
Y50650D01*
X271491Y51392D01*
X273475Y52915D01*
X274998Y54899D01*
X275740Y56690D01*
D02*
G37*
G36*
X-135400Y73339D02*
X-137880Y73012D01*
X-140191Y72055D01*
X-142176Y70532D01*
X-143698Y68548D01*
X-144656Y66237D01*
X-144982Y63757D01*
X-144656Y61277D01*
X-143698Y58966D01*
X-142176Y56982D01*
X-140191Y55459D01*
X-137880Y54502D01*
X-135400Y54175D01*
X-132920Y54502D01*
X-130609Y55459D01*
X-128625Y56982D01*
X-127102Y58966D01*
X-126145Y61277D01*
X-125818Y63757D01*
X-126145Y66237D01*
X-127102Y68548D01*
X-128625Y70532D01*
X-130609Y72055D01*
X-132920Y73012D01*
X-135400Y73339D01*
D02*
G37*
G36*
X-100500Y73257D02*
X-119500D01*
Y54257D01*
X-100500D01*
Y73257D01*
D02*
G37*
G36*
X263700Y68730D02*
X261909Y67988D01*
X259925Y66465D01*
X258402Y64481D01*
X257660Y62690D01*
X263700D01*
Y68730D01*
D02*
G37*
G36*
X269700D02*
Y62690D01*
X275740D01*
X274998Y64481D01*
X273475Y66465D01*
X271491Y67988D01*
X269700Y68730D01*
D02*
G37*
G36*
X-230330Y61570D02*
X-236830D01*
Y55070D01*
X-230330D01*
Y61570D01*
D02*
G37*
G36*
X-217830D02*
X-224330D01*
Y55070D01*
X-217830D01*
Y61570D01*
D02*
G37*
G36*
X263700Y56690D02*
X257660D01*
X258402Y54899D01*
X259925Y52915D01*
X261909Y51392D01*
X263700Y50650D01*
Y56690D01*
D02*
G37*
G36*
X-135400Y47939D02*
X-137880Y47612D01*
X-140191Y46655D01*
X-142176Y45132D01*
X-143698Y43148D01*
X-144656Y40837D01*
X-144982Y38357D01*
X-144656Y35877D01*
X-143698Y33566D01*
X-142176Y31581D01*
X-140191Y30059D01*
X-137880Y29102D01*
X-135400Y28775D01*
X-132920Y29102D01*
X-130609Y30059D01*
X-128625Y31581D01*
X-127102Y33566D01*
X-126145Y35877D01*
X-125818Y38357D01*
X-126145Y40837D01*
X-127102Y43148D01*
X-128625Y45132D01*
X-130609Y46655D01*
X-132920Y47612D01*
X-135400Y47939D01*
D02*
G37*
G36*
X-110000D02*
X-112480Y47612D01*
X-114791Y46655D01*
X-116776Y45132D01*
X-118298Y43148D01*
X-119256Y40837D01*
X-119582Y38357D01*
X-119256Y35877D01*
X-118298Y33566D01*
X-116776Y31581D01*
X-114791Y30059D01*
X-112480Y29102D01*
X-110000Y28775D01*
X-107520Y29102D01*
X-105209Y30059D01*
X-103225Y31581D01*
X-101702Y33566D01*
X-100745Y35877D01*
X-100418Y38357D01*
X-100745Y40837D01*
X-101702Y43148D01*
X-103225Y45132D01*
X-105209Y46655D01*
X-107520Y47612D01*
X-110000Y47939D01*
D02*
G37*
G36*
X135400Y22545D02*
X132920Y22218D01*
X130609Y21261D01*
X128625Y19739D01*
X127102Y17754D01*
X126145Y15443D01*
X125818Y12963D01*
X126145Y10483D01*
X127102Y8172D01*
X128625Y6188D01*
X130609Y4665D01*
X132920Y3708D01*
X135400Y3381D01*
X137880Y3708D01*
X140191Y4665D01*
X142176Y6188D01*
X143698Y8172D01*
X144656Y10483D01*
X144982Y12963D01*
X144656Y15443D01*
X143698Y17754D01*
X142176Y19739D01*
X140191Y21261D01*
X137880Y22218D01*
X135400Y22545D01*
D02*
G37*
G36*
X149860Y142932D02*
X147380Y142605D01*
X145069Y141648D01*
X143084Y140125D01*
X141562Y138141D01*
X140604Y135830D01*
X140278Y133350D01*
X140604Y130870D01*
X141562Y128559D01*
X143084Y126574D01*
X145069Y125052D01*
X146526Y124448D01*
Y53340D01*
X146780Y52064D01*
X147502Y50982D01*
X147502Y50982D01*
X147502Y50982D01*
X172958Y25527D01*
X172355Y24070D01*
X172028Y21590D01*
X172355Y19110D01*
X173312Y16799D01*
X174834Y14814D01*
X176819Y13292D01*
X179130Y12335D01*
X181610Y12008D01*
X184090Y12335D01*
X186401Y13292D01*
X188385Y14814D01*
X189908Y16799D01*
X190865Y19110D01*
X191192Y21590D01*
X190865Y24070D01*
X189908Y26381D01*
X188385Y28365D01*
X186401Y29888D01*
X184090Y30845D01*
X181610Y31172D01*
X179130Y30845D01*
X177673Y30242D01*
X153194Y54721D01*
Y124448D01*
X154651Y125052D01*
X156635Y126574D01*
X158158Y128559D01*
X159115Y130870D01*
X159442Y133350D01*
X159115Y135830D01*
X158158Y138141D01*
X156635Y140125D01*
X154651Y141648D01*
X152340Y142605D01*
X149860Y142932D01*
D02*
G37*
G36*
X110000Y47945D02*
X107520Y47618D01*
X105209Y46661D01*
X103225Y45139D01*
X101702Y43154D01*
X100745Y40843D01*
X100418Y38363D01*
X100745Y35883D01*
X101702Y33572D01*
X103225Y31588D01*
X105209Y30065D01*
X107520Y29108D01*
X110000Y28781D01*
X112480Y29108D01*
X114791Y30065D01*
X116776Y31588D01*
X118298Y33572D01*
X119256Y35883D01*
X119582Y38363D01*
X119256Y40843D01*
X118298Y43154D01*
X116776Y45139D01*
X114791Y46661D01*
X112480Y47618D01*
X110000Y47945D01*
D02*
G37*
G36*
X-230330Y49070D02*
X-236830D01*
Y42570D01*
X-230330D01*
Y49070D01*
D02*
G37*
G36*
X-217830D02*
X-224330D01*
Y42570D01*
X-217830D01*
Y49070D01*
D02*
G37*
G36*
X135400Y47945D02*
X132920Y47618D01*
X130609Y46661D01*
X128625Y45139D01*
X127102Y43154D01*
X126145Y40843D01*
X125818Y38363D01*
X126145Y35883D01*
X127102Y33572D01*
X128625Y31588D01*
X130609Y30065D01*
X132920Y29108D01*
X135400Y28781D01*
X137880Y29108D01*
X140191Y30065D01*
X142176Y31588D01*
X143698Y33572D01*
X144656Y35883D01*
X144982Y38363D01*
X144656Y40843D01*
X143698Y43154D01*
X142176Y45139D01*
X140191Y46661D01*
X137880Y47618D01*
X135400Y47945D01*
D02*
G37*
G36*
X-201930Y61652D02*
X-204410Y61325D01*
X-206721Y60368D01*
X-208705Y58846D01*
X-210228Y56861D01*
X-211185Y54550D01*
X-211512Y52070D01*
X-211185Y49590D01*
X-210228Y47279D01*
X-208705Y45294D01*
X-206721Y43772D01*
X-204410Y42814D01*
X-201930Y42488D01*
X-199450Y42814D01*
X-197139Y43772D01*
X-195154Y45294D01*
X-193632Y47279D01*
X-192675Y49590D01*
X-192348Y52070D01*
X-192675Y54550D01*
X-193632Y56861D01*
X-195154Y58846D01*
X-197139Y60368D01*
X-199450Y61325D01*
X-201930Y61652D01*
D02*
G37*
G36*
X119990Y-95910D02*
X100990D01*
Y-114910D01*
X119990D01*
Y-95910D01*
D02*
G37*
G36*
X65580Y-161750D02*
X59540D01*
X60282Y-163541D01*
X61804Y-165525D01*
X63789Y-167048D01*
X65580Y-167790D01*
Y-161750D01*
D02*
G37*
G36*
X77620D02*
X71580D01*
Y-167790D01*
X73371Y-167048D01*
X75355Y-165525D01*
X76878Y-163541D01*
X77620Y-161750D01*
D02*
G37*
G36*
X-95710Y-171910D02*
X-101750D01*
X-101008Y-173701D01*
X-99485Y-175686D01*
X-97501Y-177208D01*
X-95710Y-177950D01*
Y-171910D01*
D02*
G37*
G36*
X-83670D02*
X-89710D01*
Y-177950D01*
X-87919Y-177208D01*
X-85935Y-175686D01*
X-84412Y-173701D01*
X-83670Y-171910D01*
D02*
G37*
G36*
X-171910Y-159870D02*
X-173701Y-160612D01*
X-175686Y-162134D01*
X-177208Y-164119D01*
X-177950Y-165910D01*
X-171910D01*
Y-159870D01*
D02*
G37*
G36*
X-89710D02*
Y-165910D01*
X-83670D01*
X-84412Y-164119D01*
X-85935Y-162134D01*
X-87919Y-160612D01*
X-89710Y-159870D01*
D02*
G37*
G36*
X65580Y-149710D02*
X63789Y-150452D01*
X61804Y-151974D01*
X60282Y-153959D01*
X59540Y-155750D01*
X65580D01*
Y-149710D01*
D02*
G37*
G36*
X-165910Y-159870D02*
Y-165910D01*
X-159870D01*
X-160612Y-164119D01*
X-162134Y-162134D01*
X-164119Y-160612D01*
X-165910Y-159870D01*
D02*
G37*
G36*
X-95710D02*
X-97501Y-160612D01*
X-99485Y-162134D01*
X-101008Y-164119D01*
X-101750Y-165910D01*
X-95710D01*
Y-159870D01*
D02*
G37*
G36*
X-159870Y-171910D02*
X-165910D01*
Y-177950D01*
X-164119Y-177208D01*
X-162134Y-175686D01*
X-160612Y-173701D01*
X-159870Y-171910D01*
D02*
G37*
G36*
X-215900Y-197428D02*
X-218380Y-197754D01*
X-220691Y-198712D01*
X-222675Y-200235D01*
X-224198Y-202219D01*
X-225156Y-204530D01*
X-225482Y-207010D01*
X-225156Y-209490D01*
X-224198Y-211801D01*
X-222675Y-213785D01*
X-220691Y-215308D01*
X-218380Y-216266D01*
X-215900Y-216592D01*
X-213420Y-216266D01*
X-211109Y-215308D01*
X-209125Y-213785D01*
X-207602Y-211801D01*
X-206644Y-209490D01*
X-206318Y-207010D01*
X-206644Y-204530D01*
X-207602Y-202219D01*
X-209125Y-200235D01*
X-211109Y-198712D01*
X-213420Y-197754D01*
X-215900Y-197428D01*
D02*
G37*
G36*
X-241300Y-172028D02*
X-243780Y-172355D01*
X-246091Y-173312D01*
X-248075Y-174834D01*
X-249598Y-176819D01*
X-250555Y-179130D01*
X-250882Y-181610D01*
X-250555Y-184090D01*
X-249598Y-186401D01*
X-248075Y-188385D01*
X-246091Y-189908D01*
X-243780Y-190865D01*
X-241300Y-191192D01*
X-238820Y-190865D01*
X-236509Y-189908D01*
X-234525Y-188385D01*
X-233002Y-186401D01*
X-232045Y-184090D01*
X-231718Y-181610D01*
X-232045Y-179130D01*
X-233002Y-176819D01*
X-234525Y-174834D01*
X-236509Y-173312D01*
X-238820Y-172355D01*
X-241300Y-172028D01*
D02*
G37*
G36*
X-266700Y-197428D02*
X-269180Y-197754D01*
X-271491Y-198712D01*
X-273475Y-200235D01*
X-274998Y-202219D01*
X-275956Y-204530D01*
X-276282Y-207010D01*
X-275956Y-209490D01*
X-274998Y-211801D01*
X-273475Y-213785D01*
X-271491Y-215308D01*
X-269180Y-216266D01*
X-266700Y-216592D01*
X-264220Y-216266D01*
X-261909Y-215308D01*
X-259925Y-213785D01*
X-258402Y-211801D01*
X-257444Y-209490D01*
X-257118Y-207010D01*
X-257444Y-204530D01*
X-258402Y-202219D01*
X-259925Y-200235D01*
X-261909Y-198712D01*
X-264220Y-197754D01*
X-266700Y-197428D01*
D02*
G37*
G36*
X-241300D02*
X-243780Y-197754D01*
X-246091Y-198712D01*
X-248075Y-200235D01*
X-249598Y-202219D01*
X-250555Y-204530D01*
X-250882Y-207010D01*
X-250555Y-209490D01*
X-249598Y-211801D01*
X-248075Y-213785D01*
X-246091Y-215308D01*
X-243780Y-216266D01*
X-241300Y-216592D01*
X-238820Y-216266D01*
X-236509Y-215308D01*
X-234525Y-213785D01*
X-233002Y-211801D01*
X-232045Y-209490D01*
X-231718Y-207010D01*
X-232045Y-204530D01*
X-233002Y-202219D01*
X-234525Y-200235D01*
X-236509Y-198712D01*
X-238820Y-197754D01*
X-241300Y-197428D01*
D02*
G37*
G36*
X-215900Y-172028D02*
X-218380Y-172355D01*
X-220691Y-173312D01*
X-222675Y-174834D01*
X-224198Y-176819D01*
X-225156Y-179130D01*
X-225482Y-181610D01*
X-225156Y-184090D01*
X-224198Y-186401D01*
X-222675Y-188385D01*
X-220691Y-189908D01*
X-218380Y-190865D01*
X-215900Y-191192D01*
X-213420Y-190865D01*
X-211109Y-189908D01*
X-209125Y-188385D01*
X-207602Y-186401D01*
X-206644Y-184090D01*
X-206318Y-181610D01*
X-206644Y-179130D01*
X-207602Y-176819D01*
X-209125Y-174834D01*
X-211109Y-173312D01*
X-213420Y-172355D01*
X-215900Y-172028D01*
D02*
G37*
G36*
X-37450Y-167070D02*
X-49450D01*
X-55450Y-173070D01*
Y-185070D01*
X-49450Y-191070D01*
X-37450D01*
X-31450Y-185070D01*
Y-173070D01*
X-37450Y-167070D01*
D02*
G37*
G36*
X-171910Y-171910D02*
X-177950D01*
X-177208Y-173701D01*
X-175686Y-175686D01*
X-173701Y-177208D01*
X-171910Y-177950D01*
Y-171910D01*
D02*
G37*
G36*
X5350Y-166966D02*
X2217Y-167379D01*
X-702Y-168588D01*
X-3209Y-170511D01*
X-5132Y-173018D01*
X-6341Y-175937D01*
X-6754Y-179070D01*
X-6341Y-182203D01*
X-5132Y-185122D01*
X-3209Y-187628D01*
X-702Y-189552D01*
X2217Y-190761D01*
X5350Y-191174D01*
X8483Y-190761D01*
X11402Y-189552D01*
X13908Y-187628D01*
X15832Y-185122D01*
X17041Y-182203D01*
X17454Y-179070D01*
X17041Y-175937D01*
X15832Y-173018D01*
X13908Y-170511D01*
X11402Y-168588D01*
X8483Y-167379D01*
X5350Y-166966D01*
D02*
G37*
G36*
X-261950Y-172110D02*
X-271450D01*
X-276200Y-176860D01*
Y-186360D01*
X-271450Y-191110D01*
X-261950D01*
X-257200Y-186360D01*
Y-176860D01*
X-261950Y-172110D01*
D02*
G37*
G36*
X-37462Y-100418D02*
X-39942Y-100745D01*
X-42253Y-101702D01*
X-44237Y-103225D01*
X-45760Y-105209D01*
X-46717Y-107520D01*
X-47044Y-110000D01*
X-46717Y-112480D01*
X-45760Y-114791D01*
X-44237Y-116776D01*
X-42253Y-118298D01*
X-39942Y-119256D01*
X-37462Y-119582D01*
X-34982Y-119256D01*
X-32671Y-118298D01*
X-30687Y-116776D01*
X-29164Y-114791D01*
X-28207Y-112480D01*
X-27880Y-110000D01*
X-28207Y-107520D01*
X-29164Y-105209D01*
X-30687Y-103225D01*
X-32671Y-101702D01*
X-34982Y-100745D01*
X-37462Y-100418D01*
D02*
G37*
G36*
X-12062D02*
X-14542Y-100745D01*
X-16853Y-101702D01*
X-18837Y-103225D01*
X-20360Y-105209D01*
X-21317Y-107520D01*
X-21644Y-110000D01*
X-21317Y-112480D01*
X-20360Y-114791D01*
X-18837Y-116776D01*
X-16853Y-118298D01*
X-14542Y-119256D01*
X-12062Y-119582D01*
X-9582Y-119256D01*
X-7271Y-118298D01*
X-5286Y-116776D01*
X-3764Y-114791D01*
X-2806Y-112480D01*
X-2480Y-110000D01*
X-2806Y-107520D01*
X-3764Y-105209D01*
X-5286Y-103225D01*
X-7271Y-101702D01*
X-9582Y-100745D01*
X-12062Y-100418D01*
D02*
G37*
G36*
X10338Y-126360D02*
X8547Y-127102D01*
X6563Y-128625D01*
X5040Y-130609D01*
X4298Y-132400D01*
X10338D01*
Y-126360D01*
D02*
G37*
G36*
X16338D02*
Y-132400D01*
X22378D01*
X21636Y-130609D01*
X20113Y-128625D01*
X18129Y-127102D01*
X16338Y-126360D01*
D02*
G37*
G36*
X13338Y-100418D02*
X10858Y-100745D01*
X8547Y-101702D01*
X6563Y-103225D01*
X5040Y-105209D01*
X4083Y-107520D01*
X3756Y-110000D01*
X4083Y-112480D01*
X5040Y-114791D01*
X6563Y-116776D01*
X8547Y-118298D01*
X10858Y-119256D01*
X13338Y-119582D01*
X15818Y-119256D01*
X18129Y-118298D01*
X20113Y-116776D01*
X21636Y-114791D01*
X22594Y-112480D01*
X22920Y-110000D01*
X22594Y-107520D01*
X21636Y-105209D01*
X20113Y-103225D01*
X18129Y-101702D01*
X15818Y-100745D01*
X13338Y-100418D01*
D02*
G37*
G36*
X-53362Y-100500D02*
X-72362D01*
Y-119500D01*
X-53362D01*
Y-100500D01*
D02*
G37*
G36*
X135890Y-95828D02*
X133410Y-96154D01*
X131099Y-97112D01*
X129115Y-98635D01*
X127592Y-100619D01*
X126635Y-102930D01*
X126308Y-105410D01*
X126635Y-107890D01*
X127592Y-110201D01*
X129115Y-112185D01*
X131099Y-113708D01*
X133410Y-114665D01*
X135890Y-114992D01*
X138370Y-114665D01*
X140681Y-113708D01*
X142665Y-112185D01*
X144188Y-110201D01*
X145146Y-107890D01*
X145472Y-105410D01*
X145146Y-102930D01*
X144188Y-100619D01*
X142665Y-98635D01*
X140681Y-97112D01*
X138370Y-96154D01*
X135890Y-95828D01*
D02*
G37*
G36*
X38738Y-100418D02*
X36258Y-100745D01*
X33947Y-101702D01*
X31963Y-103225D01*
X30440Y-105209D01*
X29483Y-107520D01*
X29156Y-110000D01*
X29483Y-112480D01*
X30440Y-114791D01*
X31963Y-116776D01*
X33947Y-118298D01*
X36258Y-119256D01*
X38738Y-119582D01*
X41218Y-119256D01*
X43529Y-118298D01*
X45514Y-116776D01*
X47036Y-114791D01*
X47993Y-112480D01*
X48320Y-110000D01*
X47993Y-107520D01*
X47036Y-105209D01*
X45514Y-103225D01*
X43529Y-101702D01*
X41218Y-100745D01*
X38738Y-100418D01*
D02*
G37*
G36*
X64138D02*
X61658Y-100745D01*
X59347Y-101702D01*
X57363Y-103225D01*
X55840Y-105209D01*
X54883Y-107520D01*
X54556Y-110000D01*
X54883Y-112480D01*
X55840Y-114791D01*
X57363Y-116776D01*
X59347Y-118298D01*
X61658Y-119256D01*
X64138Y-119582D01*
X66618Y-119256D01*
X68929Y-118298D01*
X70914Y-116776D01*
X72436Y-114791D01*
X73394Y-112480D01*
X73720Y-110000D01*
X73394Y-107520D01*
X72436Y-105209D01*
X70914Y-103225D01*
X68929Y-101702D01*
X66618Y-100745D01*
X64138Y-100418D01*
D02*
G37*
G36*
X-166370Y163252D02*
X-168850Y162925D01*
X-171161Y161968D01*
X-173145Y160445D01*
X-174668Y158461D01*
X-175625Y156150D01*
X-175952Y153670D01*
X-175625Y151190D01*
X-174668Y148879D01*
X-173145Y146895D01*
X-171161Y145372D01*
X-169704Y144768D01*
Y-95250D01*
X-169450Y-96526D01*
X-168727Y-97607D01*
X-168728Y-97607D01*
X-168727Y-97608D01*
X-145812Y-120523D01*
X-146416Y-121980D01*
X-146742Y-124460D01*
X-146416Y-126940D01*
X-145458Y-129251D01*
X-143935Y-131236D01*
X-141951Y-132758D01*
X-139640Y-133715D01*
X-137160Y-134042D01*
X-134680Y-133715D01*
X-132369Y-132758D01*
X-130385Y-131236D01*
X-128862Y-129251D01*
X-127905Y-126940D01*
X-127578Y-124460D01*
X-127905Y-121980D01*
X-128862Y-119669D01*
X-130385Y-117684D01*
X-132369Y-116162D01*
X-134680Y-115204D01*
X-137160Y-114878D01*
X-139640Y-115204D01*
X-141097Y-115808D01*
X-163036Y-93869D01*
Y144768D01*
X-161579Y145372D01*
X-159595Y146895D01*
X-158072Y148879D01*
X-157114Y151190D01*
X-156788Y153670D01*
X-157114Y156150D01*
X-158072Y158461D01*
X-159595Y160445D01*
X-161579Y161968D01*
X-163890Y162925D01*
X-166370Y163252D01*
D02*
G37*
G36*
X-62862Y-125818D02*
X-65342Y-126145D01*
X-67653Y-127102D01*
X-69637Y-128625D01*
X-71160Y-130609D01*
X-72117Y-132920D01*
X-72444Y-135400D01*
X-72117Y-137880D01*
X-71160Y-140191D01*
X-69637Y-142176D01*
X-67653Y-143698D01*
X-65342Y-144656D01*
X-62862Y-144982D01*
X-60382Y-144656D01*
X-58071Y-143698D01*
X-56087Y-142176D01*
X-54564Y-140191D01*
X-53607Y-137880D01*
X-53280Y-135400D01*
X-53607Y-132920D01*
X-54564Y-130609D01*
X-56087Y-128625D01*
X-58071Y-127102D01*
X-60382Y-126145D01*
X-62862Y-125818D01*
D02*
G37*
G36*
X-37462D02*
X-39942Y-126145D01*
X-42253Y-127102D01*
X-44237Y-128625D01*
X-45760Y-130609D01*
X-46717Y-132920D01*
X-47044Y-135400D01*
X-46717Y-137880D01*
X-45760Y-140191D01*
X-44237Y-142176D01*
X-42253Y-143698D01*
X-39942Y-144656D01*
X-37462Y-144982D01*
X-34982Y-144656D01*
X-32671Y-143698D01*
X-30687Y-142176D01*
X-29164Y-140191D01*
X-28207Y-137880D01*
X-27880Y-135400D01*
X-28207Y-132920D01*
X-29164Y-130609D01*
X-30687Y-128625D01*
X-32671Y-127102D01*
X-34982Y-126145D01*
X-37462Y-125818D01*
D02*
G37*
G36*
X71580Y-149710D02*
Y-155750D01*
X77620D01*
X76878Y-153959D01*
X75355Y-151974D01*
X73371Y-150452D01*
X71580Y-149710D01*
D02*
G37*
G36*
X-91440Y-126308D02*
X-93920Y-126635D01*
X-96231Y-127592D01*
X-98216Y-129115D01*
X-99738Y-131099D01*
X-100489Y-132912D01*
X-101418Y-133532D01*
X-111578Y-143693D01*
X-112300Y-144774D01*
X-112554Y-146050D01*
Y-223508D01*
X-114011Y-224112D01*
X-115995Y-225634D01*
X-117518Y-227619D01*
X-118476Y-229930D01*
X-118802Y-232410D01*
X-118476Y-234890D01*
X-117518Y-237201D01*
X-115995Y-239185D01*
X-114011Y-240708D01*
X-111700Y-241665D01*
X-109220Y-241992D01*
X-106740Y-241665D01*
X-104429Y-240708D01*
X-102445Y-239185D01*
X-100922Y-237201D01*
X-99965Y-234890D01*
X-99638Y-232410D01*
X-99965Y-229930D01*
X-100922Y-227619D01*
X-102445Y-225634D01*
X-104429Y-224112D01*
X-105886Y-223508D01*
Y-147431D01*
X-100158Y-141703D01*
X-98890Y-141786D01*
X-98216Y-142665D01*
X-96231Y-144188D01*
X-93920Y-145146D01*
X-91440Y-145472D01*
X-88960Y-145146D01*
X-86649Y-144188D01*
X-84664Y-142665D01*
X-83142Y-140681D01*
X-82184Y-138370D01*
X-81858Y-135890D01*
X-82184Y-133410D01*
X-83142Y-131099D01*
X-84664Y-129115D01*
X-86649Y-127592D01*
X-88960Y-126635D01*
X-91440Y-126308D01*
D02*
G37*
G36*
X-12062Y-125818D02*
X-14542Y-126145D01*
X-16853Y-127102D01*
X-18837Y-128625D01*
X-20360Y-130609D01*
X-21317Y-132920D01*
X-21644Y-135400D01*
X-21317Y-137880D01*
X-20360Y-140191D01*
X-18837Y-142176D01*
X-16853Y-143698D01*
X-14542Y-144656D01*
X-12062Y-144982D01*
X-9582Y-144656D01*
X-7271Y-143698D01*
X-5286Y-142176D01*
X-3764Y-140191D01*
X-2806Y-137880D01*
X-2480Y-135400D01*
X-2806Y-132920D01*
X-3764Y-130609D01*
X-5286Y-128625D01*
X-7271Y-127102D01*
X-9582Y-126145D01*
X-12062Y-125818D01*
D02*
G37*
G36*
X10338Y-138400D02*
X4298D01*
X5040Y-140191D01*
X6563Y-142176D01*
X8547Y-143698D01*
X10338Y-144440D01*
Y-138400D01*
D02*
G37*
G36*
X22378D02*
X16338D01*
Y-144440D01*
X18129Y-143698D01*
X20113Y-142176D01*
X21636Y-140191D01*
X22378Y-138400D01*
D02*
G37*
G36*
X38738Y-125818D02*
X36258Y-126145D01*
X33947Y-127102D01*
X31963Y-128625D01*
X30440Y-130609D01*
X29483Y-132920D01*
X29156Y-135400D01*
X29483Y-137880D01*
X30440Y-140191D01*
X31963Y-142176D01*
X33947Y-143698D01*
X36258Y-144656D01*
X38738Y-144982D01*
X41218Y-144656D01*
X43529Y-143698D01*
X45514Y-142176D01*
X47036Y-140191D01*
X47993Y-137880D01*
X48320Y-135400D01*
X47993Y-132920D01*
X47036Y-130609D01*
X45514Y-128625D01*
X43529Y-127102D01*
X41218Y-126145D01*
X38738Y-125818D01*
D02*
G37*
G36*
X64138D02*
X61658Y-126145D01*
X59347Y-127102D01*
X57363Y-128625D01*
X55840Y-130609D01*
X54883Y-132920D01*
X54556Y-135400D01*
X54883Y-137880D01*
X55840Y-140191D01*
X57363Y-142176D01*
X59347Y-143698D01*
X61658Y-144656D01*
X64138Y-144982D01*
X66618Y-144656D01*
X68929Y-143698D01*
X70914Y-142176D01*
X72436Y-140191D01*
X73394Y-137880D01*
X73720Y-135400D01*
X73394Y-132920D01*
X72436Y-130609D01*
X70914Y-128625D01*
X68929Y-127102D01*
X66618Y-126145D01*
X64138Y-125818D01*
D02*
G37*
G36*
X-251920Y214170D02*
X-255795D01*
X-255471Y213388D01*
X-254269Y211821D01*
X-252702Y210619D01*
X-251920Y210295D01*
Y214170D01*
D02*
G37*
G36*
X-242045D02*
X-245920D01*
Y210295D01*
X-245138Y210619D01*
X-243571Y211821D01*
X-242369Y213388D01*
X-242045Y214170D01*
D02*
G37*
G36*
X-273510D02*
X-277385D01*
X-277061Y213388D01*
X-275859Y211821D01*
X-274292Y210619D01*
X-273510Y210295D01*
Y214170D01*
D02*
G37*
G36*
X-263635D02*
X-267510D01*
Y210295D01*
X-266728Y210619D01*
X-265161Y211821D01*
X-263959Y213388D01*
X-263635Y214170D01*
D02*
G37*
G36*
X-273510Y224045D02*
X-274292Y223721D01*
X-275859Y222519D01*
X-277061Y220952D01*
X-277385Y220170D01*
X-273510D01*
Y224045D01*
D02*
G37*
G36*
X-245920D02*
Y220170D01*
X-242045D01*
X-242369Y220952D01*
X-243571Y222519D01*
X-245138Y223721D01*
X-245920Y224045D01*
D02*
G37*
G36*
X-273510Y239570D02*
X-277385D01*
X-277061Y238788D01*
X-275859Y237221D01*
X-274292Y236019D01*
X-273510Y235695D01*
Y239570D01*
D02*
G37*
G36*
X-267510Y224045D02*
Y220170D01*
X-263635D01*
X-263959Y220952D01*
X-265161Y222519D01*
X-266728Y223721D01*
X-267510Y224045D01*
D02*
G37*
G36*
X-251920D02*
X-252702Y223721D01*
X-254269Y222519D01*
X-255471Y220952D01*
X-255795Y220170D01*
X-251920D01*
Y224045D01*
D02*
G37*
G36*
X110410Y235814D02*
X-26216D01*
Y205820D01*
X110410D01*
Y235814D01*
D02*
G37*
G36*
X-273510Y193565D02*
X-274292Y193241D01*
X-275859Y192039D01*
X-277061Y190472D01*
X-277385Y189690D01*
X-273510D01*
Y193565D01*
D02*
G37*
G36*
X-267510D02*
Y189690D01*
X-263635D01*
X-263959Y190472D01*
X-265161Y192039D01*
X-266728Y193241D01*
X-267510Y193565D01*
D02*
G37*
G36*
X-227790Y183690D02*
X-231665D01*
X-231341Y182908D01*
X-230139Y181341D01*
X-228572Y180139D01*
X-227790Y179815D01*
Y183690D01*
D02*
G37*
G36*
X-217915D02*
X-221790D01*
Y179815D01*
X-221008Y180139D01*
X-219441Y181341D01*
X-218239Y182908D01*
X-217915Y183690D01*
D02*
G37*
G36*
X-251920Y193565D02*
X-252702Y193241D01*
X-254269Y192039D01*
X-255471Y190472D01*
X-255795Y189690D01*
X-251920D01*
Y193565D01*
D02*
G37*
G36*
X-221790D02*
Y189690D01*
X-217915D01*
X-218239Y190472D01*
X-219441Y192039D01*
X-221008Y193241D01*
X-221790Y193565D01*
D02*
G37*
G36*
X228520Y240893D02*
X171868D01*
Y204235D01*
X228520D01*
Y240893D01*
D02*
G37*
G36*
X-245920Y193565D02*
Y189690D01*
X-242045D01*
X-242369Y190472D01*
X-243571Y192039D01*
X-245138Y193241D01*
X-245920Y193565D01*
D02*
G37*
G36*
X-227790D02*
X-228572Y193241D01*
X-230139Y192039D01*
X-231341Y190472D01*
X-231665Y189690D01*
X-227790D01*
Y193565D01*
D02*
G37*
G36*
X-217915Y266240D02*
X-221790D01*
Y262365D01*
X-221008Y262689D01*
X-219441Y263891D01*
X-218239Y265458D01*
X-217915Y266240D01*
D02*
G37*
G36*
X-273510Y276115D02*
X-274292Y275791D01*
X-275859Y274589D01*
X-277061Y273022D01*
X-277385Y272240D01*
X-273510D01*
Y276115D01*
D02*
G37*
G36*
X-242045Y266240D02*
X-245920D01*
Y262365D01*
X-245138Y262689D01*
X-243571Y263891D01*
X-242369Y265458D01*
X-242045Y266240D01*
D02*
G37*
G36*
X-227790D02*
X-231665D01*
X-231341Y265458D01*
X-230139Y263891D01*
X-228572Y262689D01*
X-227790Y262365D01*
Y266240D01*
D02*
G37*
G36*
X-267510Y276115D02*
Y272240D01*
X-263635D01*
X-263959Y273022D01*
X-265161Y274589D01*
X-266728Y275791D01*
X-267510Y276115D01*
D02*
G37*
G36*
X-227790D02*
X-228572Y275791D01*
X-230139Y274589D01*
X-231341Y273022D01*
X-231665Y272240D01*
X-227790D01*
Y276115D01*
D02*
G37*
G36*
X-221790D02*
Y272240D01*
X-217915D01*
X-218239Y273022D01*
X-219441Y274589D01*
X-221008Y275791D01*
X-221790Y276115D01*
D02*
G37*
G36*
X-251920D02*
X-252702Y275791D01*
X-254269Y274589D01*
X-255471Y273022D01*
X-255795Y272240D01*
X-251920D01*
Y276115D01*
D02*
G37*
G36*
X-245920D02*
Y272240D01*
X-242045D01*
X-242369Y273022D01*
X-243571Y274589D01*
X-245138Y275791D01*
X-245920Y276115D01*
D02*
G37*
G36*
X-251920Y266240D02*
X-255795D01*
X-255471Y265458D01*
X-254269Y263891D01*
X-252702Y262689D01*
X-251920Y262365D01*
Y266240D01*
D02*
G37*
G36*
X-242045Y239570D02*
X-245920D01*
Y235695D01*
X-245138Y236019D01*
X-243571Y237221D01*
X-242369Y238788D01*
X-242045Y239570D01*
D02*
G37*
G36*
X-273510Y249445D02*
X-274292Y249121D01*
X-275859Y247919D01*
X-277061Y246352D01*
X-277385Y245570D01*
X-273510D01*
Y249445D01*
D02*
G37*
G36*
X-263635Y239570D02*
X-267510D01*
Y235695D01*
X-266728Y236019D01*
X-265161Y237221D01*
X-263959Y238788D01*
X-263635Y239570D01*
D02*
G37*
G36*
X-251920D02*
X-255795D01*
X-255471Y238788D01*
X-254269Y237221D01*
X-252702Y236019D01*
X-251920Y235695D01*
Y239570D01*
D02*
G37*
G36*
X-267510Y249445D02*
Y245570D01*
X-263635D01*
X-263959Y246352D01*
X-265161Y247919D01*
X-266728Y249121D01*
X-267510Y249445D01*
D02*
G37*
G36*
X-273510Y266240D02*
X-277385D01*
X-277061Y265458D01*
X-275859Y263891D01*
X-274292Y262689D01*
X-273510Y262365D01*
Y266240D01*
D02*
G37*
G36*
X-263635D02*
X-267510D01*
Y262365D01*
X-266728Y262689D01*
X-265161Y263891D01*
X-263959Y265458D01*
X-263635Y266240D01*
D02*
G37*
G36*
X-251920Y249445D02*
X-252702Y249121D01*
X-254269Y247919D01*
X-255471Y246352D01*
X-255795Y245570D01*
X-251920D01*
Y249445D01*
D02*
G37*
G36*
X-245920D02*
Y245570D01*
X-242045D01*
X-242369Y246352D01*
X-243571Y247919D01*
X-245138Y249121D01*
X-245920Y249445D01*
D02*
G37*
G36*
X-242045Y183690D02*
X-245920D01*
Y179815D01*
X-245138Y180139D01*
X-243571Y181341D01*
X-242369Y182908D01*
X-242045Y183690D01*
D02*
G37*
G36*
X73632Y119500D02*
X54632D01*
Y100500D01*
X73632D01*
Y119500D01*
D02*
G37*
G36*
X241300Y128962D02*
X238820Y128636D01*
X236509Y127678D01*
X234525Y126155D01*
X233002Y124171D01*
X232045Y121860D01*
X231718Y119380D01*
X232045Y116900D01*
X233002Y114589D01*
X234525Y112605D01*
X236509Y111082D01*
X238820Y110125D01*
X241300Y109798D01*
X243780Y110125D01*
X246091Y111082D01*
X248075Y112605D01*
X249598Y114589D01*
X250555Y116900D01*
X250882Y119380D01*
X250555Y121860D01*
X249598Y124171D01*
X248075Y126155D01*
X246091Y127678D01*
X243780Y128636D01*
X241300Y128962D01*
D02*
G37*
G36*
X13332Y119582D02*
X10852Y119256D01*
X8541Y118298D01*
X6557Y116776D01*
X5034Y114791D01*
X4076Y112480D01*
X3750Y110000D01*
X4076Y107520D01*
X5034Y105209D01*
X6557Y103225D01*
X8541Y101702D01*
X10852Y100745D01*
X13332Y100418D01*
X15812Y100745D01*
X18123Y101702D01*
X20107Y103225D01*
X21630Y105209D01*
X22587Y107520D01*
X22914Y110000D01*
X22587Y112480D01*
X21630Y114791D01*
X20107Y116776D01*
X18123Y118298D01*
X15812Y119256D01*
X13332Y119582D01*
D02*
G37*
G36*
X38732D02*
X36252Y119256D01*
X33941Y118298D01*
X31957Y116776D01*
X30434Y114791D01*
X29476Y112480D01*
X29150Y110000D01*
X29476Y107520D01*
X30434Y105209D01*
X31957Y103225D01*
X33941Y101702D01*
X36252Y100745D01*
X38732Y100418D01*
X41212Y100745D01*
X43523Y101702D01*
X45507Y103225D01*
X47030Y105209D01*
X47987Y107520D01*
X48314Y110000D01*
X47987Y112480D01*
X47030Y114791D01*
X45507Y116776D01*
X43523Y118298D01*
X41212Y119256D01*
X38732Y119582D01*
D02*
G37*
G36*
X266700Y128962D02*
X264220Y128636D01*
X261909Y127678D01*
X259925Y126155D01*
X258402Y124171D01*
X257444Y121860D01*
X257118Y119380D01*
X257444Y116900D01*
X258402Y114589D01*
X259925Y112605D01*
X261909Y111082D01*
X264220Y110125D01*
X266700Y109798D01*
X269180Y110125D01*
X271491Y111082D01*
X273475Y112605D01*
X274998Y114589D01*
X275956Y116900D01*
X276282Y119380D01*
X275956Y121860D01*
X274998Y124171D01*
X273475Y126155D01*
X271491Y127678D01*
X269180Y128636D01*
X266700Y128962D01*
D02*
G37*
G36*
X-62868Y144982D02*
X-65348Y144656D01*
X-67659Y143698D01*
X-69644Y142176D01*
X-71166Y140191D01*
X-72123Y137880D01*
X-72450Y135400D01*
X-72123Y132920D01*
X-71166Y130609D01*
X-69644Y128625D01*
X-67659Y127102D01*
X-65348Y126145D01*
X-62868Y125818D01*
X-60388Y126145D01*
X-58077Y127102D01*
X-56093Y128625D01*
X-54570Y130609D01*
X-53613Y132920D01*
X-53286Y135400D01*
X-53613Y137880D01*
X-54570Y140191D01*
X-56093Y142176D01*
X-58077Y143698D01*
X-60388Y144656D01*
X-62868Y144982D01*
D02*
G37*
G36*
X-37468D02*
X-39948Y144656D01*
X-42259Y143698D01*
X-44243Y142176D01*
X-45766Y140191D01*
X-46723Y137880D01*
X-47050Y135400D01*
X-46723Y132920D01*
X-45766Y130609D01*
X-44243Y128625D01*
X-42259Y127102D01*
X-39948Y126145D01*
X-37468Y125818D01*
X-34988Y126145D01*
X-32677Y127102D01*
X-30693Y128625D01*
X-29170Y130609D01*
X-28213Y132920D01*
X-27886Y135400D01*
X-28213Y137880D01*
X-29170Y140191D01*
X-30693Y142176D01*
X-32677Y143698D01*
X-34988Y144656D01*
X-37468Y144982D01*
D02*
G37*
G36*
X-227330Y137852D02*
X-229810Y137526D01*
X-232121Y136568D01*
X-234105Y135045D01*
X-235628Y133061D01*
X-236586Y130750D01*
X-236912Y128270D01*
X-236586Y125790D01*
X-235628Y123479D01*
X-234105Y121495D01*
X-232121Y119972D01*
X-229810Y119015D01*
X-227330Y118688D01*
X-224850Y119015D01*
X-222539Y119972D01*
X-220555Y121495D01*
X-219032Y123479D01*
X-218074Y125790D01*
X-217748Y128270D01*
X-218074Y130750D01*
X-219032Y133061D01*
X-220555Y135045D01*
X-222539Y136568D01*
X-224850Y137526D01*
X-227330Y137852D01*
D02*
G37*
G36*
X-201930D02*
X-204410Y137526D01*
X-206721Y136568D01*
X-208705Y135045D01*
X-210228Y133061D01*
X-211185Y130750D01*
X-211512Y128270D01*
X-211185Y125790D01*
X-210228Y123479D01*
X-208705Y121495D01*
X-206721Y119972D01*
X-204410Y119015D01*
X-201930Y118688D01*
X-199450Y119015D01*
X-197139Y119972D01*
X-195154Y121495D01*
X-193632Y123479D01*
X-192675Y125790D01*
X-192348Y128270D01*
X-192675Y130750D01*
X-193632Y133061D01*
X-195154Y135045D01*
X-197139Y136568D01*
X-199450Y137526D01*
X-201930Y137852D01*
D02*
G37*
G36*
X-12068Y119582D02*
X-14548Y119256D01*
X-16859Y118298D01*
X-18843Y116776D01*
X-20366Y114791D01*
X-21323Y112480D01*
X-21650Y110000D01*
X-21323Y107520D01*
X-20366Y105209D01*
X-18843Y103225D01*
X-16859Y101702D01*
X-14548Y100745D01*
X-12068Y100418D01*
X-9588Y100745D01*
X-7277Y101702D01*
X-5293Y103225D01*
X-3770Y105209D01*
X-2813Y107520D01*
X-2486Y110000D01*
X-2813Y112480D01*
X-3770Y114791D01*
X-5293Y116776D01*
X-7277Y118298D01*
X-9588Y119256D01*
X-12068Y119582D01*
D02*
G37*
G36*
X193040Y117532D02*
X190560Y117205D01*
X188249Y116248D01*
X186264Y114726D01*
X184742Y112741D01*
X183785Y110430D01*
X183458Y107950D01*
X183785Y105470D01*
X184742Y103159D01*
X186264Y101174D01*
X188249Y99652D01*
X189706Y99048D01*
Y90182D01*
X188249Y89578D01*
X186264Y88055D01*
X184742Y86071D01*
X183785Y83760D01*
X183458Y81280D01*
X183785Y78800D01*
X184742Y76489D01*
X186264Y74504D01*
X188249Y72982D01*
X190560Y72024D01*
X193040Y71698D01*
X195520Y72024D01*
X197831Y72982D01*
X199816Y74504D01*
X201338Y76489D01*
X202295Y78800D01*
X202622Y81280D01*
X202295Y83760D01*
X201338Y86071D01*
X199816Y88055D01*
X197831Y89578D01*
X196374Y90182D01*
Y99048D01*
X197831Y99652D01*
X199816Y101174D01*
X201338Y103159D01*
X202295Y105470D01*
X202622Y107950D01*
X202295Y110430D01*
X201338Y112741D01*
X199816Y114726D01*
X197831Y116248D01*
X195520Y117205D01*
X193040Y117532D01*
D02*
G37*
G36*
X241300Y103562D02*
X238820Y103236D01*
X236509Y102278D01*
X234525Y100755D01*
X233002Y98771D01*
X232045Y96460D01*
X231718Y93980D01*
X232045Y91500D01*
X233002Y89189D01*
X234525Y87205D01*
X236509Y85682D01*
X238820Y84725D01*
X241300Y84398D01*
X243780Y84725D01*
X246091Y85682D01*
X248075Y87205D01*
X249598Y89189D01*
X250555Y91500D01*
X250882Y93980D01*
X250555Y96460D01*
X249598Y98771D01*
X248075Y100755D01*
X246091Y102278D01*
X243780Y103236D01*
X241300Y103562D01*
D02*
G37*
G36*
X-227330Y87052D02*
X-229810Y86726D01*
X-232121Y85768D01*
X-234105Y84246D01*
X-235628Y82261D01*
X-236586Y79950D01*
X-236912Y77470D01*
X-236586Y74990D01*
X-235628Y72679D01*
X-234105Y70694D01*
X-232121Y69172D01*
X-229810Y68215D01*
X-227330Y67888D01*
X-224850Y68215D01*
X-222539Y69172D01*
X-220555Y70694D01*
X-219032Y72679D01*
X-218074Y74990D01*
X-217748Y77470D01*
X-218074Y79950D01*
X-219032Y82261D01*
X-220555Y84246D01*
X-222539Y85768D01*
X-224850Y86726D01*
X-227330Y87052D01*
D02*
G37*
G36*
X-201930D02*
X-204410Y86726D01*
X-206721Y85768D01*
X-208705Y84246D01*
X-210228Y82261D01*
X-211185Y79950D01*
X-211512Y77470D01*
X-211185Y74990D01*
X-210228Y72679D01*
X-208705Y70694D01*
X-206721Y69172D01*
X-204410Y68215D01*
X-201930Y67888D01*
X-199450Y68215D01*
X-197139Y69172D01*
X-195154Y70694D01*
X-193632Y72679D01*
X-192675Y74990D01*
X-192348Y77470D01*
X-192675Y79950D01*
X-193632Y82261D01*
X-195154Y84246D01*
X-197139Y85768D01*
X-199450Y86726D01*
X-201930Y87052D01*
D02*
G37*
G36*
X266700Y103562D02*
X264220Y103236D01*
X261909Y102278D01*
X259925Y100755D01*
X258402Y98771D01*
X257444Y96460D01*
X257118Y93980D01*
X257444Y91500D01*
X258402Y89189D01*
X259925Y87205D01*
X261909Y85682D01*
X264220Y84725D01*
X266700Y84398D01*
X269180Y84725D01*
X271491Y85682D01*
X273475Y87205D01*
X274998Y89189D01*
X275956Y91500D01*
X276282Y93980D01*
X275956Y96460D01*
X274998Y98771D01*
X273475Y100755D01*
X271491Y102278D01*
X269180Y103236D01*
X266700Y103562D01*
D02*
G37*
G36*
X-62868Y119582D02*
X-65348Y119256D01*
X-67659Y118298D01*
X-69644Y116776D01*
X-71166Y114791D01*
X-72123Y112480D01*
X-72450Y110000D01*
X-72123Y107520D01*
X-71166Y105209D01*
X-69644Y103225D01*
X-67659Y101702D01*
X-65348Y100745D01*
X-62868Y100418D01*
X-60388Y100745D01*
X-58077Y101702D01*
X-56093Y103225D01*
X-54570Y105209D01*
X-53613Y107520D01*
X-53286Y110000D01*
X-53613Y112480D01*
X-54570Y114791D01*
X-56093Y116776D01*
X-58077Y118298D01*
X-60388Y119256D01*
X-62868Y119582D01*
D02*
G37*
G36*
X-37468D02*
X-39948Y119256D01*
X-42259Y118298D01*
X-44243Y116776D01*
X-45766Y114791D01*
X-46723Y112480D01*
X-47050Y110000D01*
X-46723Y107520D01*
X-45766Y105209D01*
X-44243Y103225D01*
X-42259Y101702D01*
X-39948Y100745D01*
X-37468Y100418D01*
X-34988Y100745D01*
X-32677Y101702D01*
X-30693Y103225D01*
X-29170Y105209D01*
X-28213Y107520D01*
X-27886Y110000D01*
X-28213Y112480D01*
X-29170Y114791D01*
X-30693Y116776D01*
X-32677Y118298D01*
X-34988Y119256D01*
X-37468Y119582D01*
D02*
G37*
G36*
X-227330Y112452D02*
X-229810Y112126D01*
X-232121Y111168D01*
X-234105Y109645D01*
X-235628Y107661D01*
X-236586Y105350D01*
X-236912Y102870D01*
X-236586Y100390D01*
X-235628Y98079D01*
X-234105Y96095D01*
X-232121Y94572D01*
X-229810Y93615D01*
X-227330Y93288D01*
X-224850Y93615D01*
X-222539Y94572D01*
X-220555Y96095D01*
X-219032Y98079D01*
X-218074Y100390D01*
X-217748Y102870D01*
X-218074Y105350D01*
X-219032Y107661D01*
X-220555Y109645D01*
X-222539Y111168D01*
X-224850Y112126D01*
X-227330Y112452D01*
D02*
G37*
G36*
X-201930D02*
X-204410Y112126D01*
X-206721Y111168D01*
X-208705Y109645D01*
X-210228Y107661D01*
X-211185Y105350D01*
X-211512Y102870D01*
X-211185Y100390D01*
X-210228Y98079D01*
X-208705Y96095D01*
X-206721Y94572D01*
X-204410Y93615D01*
X-201930Y93288D01*
X-199450Y93615D01*
X-197139Y94572D01*
X-195154Y96095D01*
X-193632Y98079D01*
X-192675Y100390D01*
X-192348Y102870D01*
X-192675Y105350D01*
X-193632Y107661D01*
X-195154Y109645D01*
X-197139Y111168D01*
X-199450Y112126D01*
X-201930Y112452D01*
D02*
G37*
G36*
X263700Y167180D02*
X257200D01*
Y160680D01*
X263700D01*
Y167180D01*
D02*
G37*
G36*
X276200D02*
X269700D01*
Y160680D01*
X276200D01*
Y167180D01*
D02*
G37*
G36*
X-129540Y170872D02*
X-132020Y170546D01*
X-134331Y169588D01*
X-136315Y168065D01*
X-137838Y166081D01*
X-138795Y163770D01*
X-139122Y161290D01*
X-138795Y158810D01*
X-137838Y156499D01*
X-136315Y154515D01*
X-134331Y152992D01*
X-132020Y152035D01*
X-129540Y151708D01*
X-127060Y152035D01*
X-124749Y152992D01*
X-122765Y154515D01*
X-121242Y156499D01*
X-120285Y158810D01*
X-119958Y161290D01*
X-120285Y163770D01*
X-121242Y166081D01*
X-122765Y168065D01*
X-124749Y169588D01*
X-127060Y170546D01*
X-129540Y170872D01*
D02*
G37*
G36*
X241300Y179762D02*
X238820Y179436D01*
X236509Y178478D01*
X234525Y176955D01*
X233002Y174971D01*
X232045Y172660D01*
X231718Y170180D01*
X232045Y167700D01*
X233002Y165389D01*
X234525Y163405D01*
X236509Y161882D01*
X238820Y160924D01*
X241300Y160598D01*
X243780Y160924D01*
X246091Y161882D01*
X248075Y163405D01*
X249598Y165389D01*
X250555Y167700D01*
X250882Y170180D01*
X250555Y172660D01*
X249598Y174971D01*
X248075Y176955D01*
X246091Y178478D01*
X243780Y179436D01*
X241300Y179762D01*
D02*
G37*
G36*
X263700Y179680D02*
X257200D01*
Y173180D01*
X263700D01*
Y179680D01*
D02*
G37*
G36*
X-263635Y183690D02*
X-267510D01*
Y179815D01*
X-266728Y180139D01*
X-265161Y181341D01*
X-263959Y182908D01*
X-263635Y183690D01*
D02*
G37*
G36*
X-251920D02*
X-255795D01*
X-255471Y182908D01*
X-254269Y181341D01*
X-252702Y180139D01*
X-251920Y179815D01*
Y183690D01*
D02*
G37*
G36*
X276200Y179680D02*
X269700D01*
Y173180D01*
X276200D01*
Y179680D01*
D02*
G37*
G36*
X-273510Y183690D02*
X-277385D01*
X-277061Y182908D01*
X-275859Y181341D01*
X-274292Y180139D01*
X-273510Y179815D01*
Y183690D01*
D02*
G37*
G36*
X12700Y170872D02*
X10220Y170546D01*
X7909Y169588D01*
X5925Y168065D01*
X4402Y166081D01*
X3444Y163770D01*
X3118Y161290D01*
X3444Y158810D01*
X4402Y156499D01*
X5925Y154515D01*
X7909Y152992D01*
X10220Y152035D01*
X12700Y151708D01*
X15180Y152035D01*
X17491Y152992D01*
X19475Y154515D01*
X20998Y156499D01*
X21602Y157956D01*
X168799D01*
X174796Y151959D01*
X174090Y150903D01*
X172660Y151496D01*
X170180Y151822D01*
X167700Y151496D01*
X166243Y150892D01*
X164918Y152218D01*
X163836Y152940D01*
X162560Y153194D01*
X140970D01*
X139694Y152940D01*
X138612Y152218D01*
X124642Y138247D01*
X123920Y137166D01*
X123666Y135890D01*
Y123301D01*
X-67183Y-67548D01*
X-68640Y-66944D01*
X-71120Y-66618D01*
X-73600Y-66944D01*
X-75911Y-67902D01*
X-77895Y-69425D01*
X-79283Y-71233D01*
X-80486Y-70825D01*
Y17768D01*
X-79029Y18372D01*
X-77045Y19894D01*
X-75522Y21879D01*
X-74564Y24190D01*
X-74238Y26670D01*
X-74564Y29150D01*
X-75522Y31461D01*
X-77045Y33445D01*
X-79029Y34968D01*
X-81340Y35926D01*
X-83820Y36252D01*
X-86300Y35926D01*
X-88611Y34968D01*
X-90595Y33445D01*
X-92118Y31461D01*
X-93076Y29150D01*
X-93402Y26670D01*
X-93076Y24190D01*
X-92118Y21879D01*
X-90595Y19894D01*
X-88611Y18372D01*
X-87154Y17768D01*
Y-98949D01*
X-149677Y-161472D01*
X-150400Y-162554D01*
X-150654Y-163830D01*
Y-231140D01*
X-150400Y-232416D01*
X-149677Y-233498D01*
X-149678Y-233498D01*
X-149677Y-233498D01*
X-121737Y-261437D01*
X-121738D01*
X-121737Y-261438D01*
X-121737Y-261438D01*
Y-261438D01*
X-120656Y-262160D01*
X-119380Y-262414D01*
X74930D01*
X76206Y-262160D01*
X77288Y-261437D01*
X77288Y-261438D01*
X77288Y-261437D01*
X135763Y-202962D01*
X137220Y-203566D01*
X139700Y-203892D01*
X142180Y-203566D01*
X144491Y-202608D01*
X146475Y-201085D01*
X147998Y-199101D01*
X148955Y-196790D01*
X149282Y-194310D01*
X148955Y-191830D01*
X147998Y-189519D01*
X146475Y-187535D01*
X144491Y-186012D01*
X142180Y-185054D01*
X139700Y-184728D01*
X137220Y-185054D01*
X134909Y-186012D01*
X132924Y-187535D01*
X131402Y-189519D01*
X130444Y-191830D01*
X130118Y-194310D01*
X130444Y-196790D01*
X131048Y-198247D01*
X73549Y-255746D01*
X-117999D01*
X-143986Y-229759D01*
Y-165211D01*
X-81462Y-102688D01*
X-81462Y-102688D01*
X-81462Y-102688D01*
X-80740Y-101606D01*
X-80486Y-100330D01*
Y-81575D01*
X-79283Y-81167D01*
X-77895Y-82975D01*
X-75911Y-84498D01*
X-73600Y-85456D01*
X-71120Y-85782D01*
X-68640Y-85456D01*
X-66329Y-84498D01*
X-64345Y-82975D01*
X-62822Y-80991D01*
X-61865Y-78680D01*
X-61538Y-76200D01*
X-61865Y-73720D01*
X-62468Y-72263D01*
X129358Y119563D01*
X129358Y119562D01*
X129358Y119563D01*
X130080Y120644D01*
X130334Y121920D01*
Y134509D01*
X142351Y146526D01*
X160530D01*
X161235Y145470D01*
X160924Y144720D01*
X160598Y142240D01*
X160924Y139760D01*
X161882Y137449D01*
X163405Y135464D01*
X165389Y133942D01*
X167700Y132985D01*
X170180Y132658D01*
X172660Y132985D01*
X174971Y133942D01*
X176955Y135464D01*
X178478Y137449D01*
X179436Y139760D01*
X179762Y142240D01*
X179436Y144720D01*
X178843Y146151D01*
X179899Y146856D01*
X195818Y130937D01*
X195215Y129480D01*
X194888Y127000D01*
X195215Y124520D01*
X196172Y122209D01*
X197695Y120225D01*
X199679Y118702D01*
X201990Y117745D01*
X204470Y117418D01*
X206950Y117745D01*
X209261Y118702D01*
X211245Y120225D01*
X212768Y122209D01*
X213725Y124520D01*
X214052Y127000D01*
X213725Y129480D01*
X212768Y131791D01*
X211245Y133775D01*
X209261Y135298D01*
X206950Y136256D01*
X204470Y136582D01*
X201990Y136256D01*
X200533Y135652D01*
X172537Y163647D01*
X171456Y164370D01*
X170180Y164624D01*
X21602D01*
X20998Y166081D01*
X19475Y168065D01*
X17491Y169588D01*
X15180Y170546D01*
X12700Y170872D01*
D02*
G37*
G36*
X38732Y144982D02*
X36252Y144656D01*
X33941Y143698D01*
X31957Y142176D01*
X30434Y140191D01*
X29476Y137880D01*
X29150Y135400D01*
X29476Y132920D01*
X30434Y130609D01*
X31957Y128625D01*
X33941Y127102D01*
X36252Y126145D01*
X38732Y125818D01*
X41212Y126145D01*
X43523Y127102D01*
X45507Y128625D01*
X47030Y130609D01*
X47987Y132920D01*
X48314Y135400D01*
X47987Y137880D01*
X47030Y140191D01*
X45507Y142176D01*
X43523Y143698D01*
X41212Y144656D01*
X38732Y144982D01*
D02*
G37*
G36*
X64132D02*
X61652Y144656D01*
X59341Y143698D01*
X57357Y142176D01*
X55834Y140191D01*
X54876Y137880D01*
X54550Y135400D01*
X54876Y132920D01*
X55834Y130609D01*
X57357Y128625D01*
X59341Y127102D01*
X61652Y126145D01*
X64132Y125818D01*
X66612Y126145D01*
X68923Y127102D01*
X70907Y128625D01*
X72430Y130609D01*
X73387Y132920D01*
X73714Y135400D01*
X73387Y137880D01*
X72430Y140191D01*
X70907Y142176D01*
X68923Y143698D01*
X66612Y144656D01*
X64132Y144982D01*
D02*
G37*
G36*
X-12068D02*
X-14548Y144656D01*
X-16859Y143698D01*
X-18843Y142176D01*
X-20366Y140191D01*
X-21323Y137880D01*
X-21650Y135400D01*
X-21323Y132920D01*
X-20366Y130609D01*
X-18843Y128625D01*
X-16859Y127102D01*
X-14548Y126145D01*
X-12068Y125818D01*
X-9588Y126145D01*
X-7277Y127102D01*
X-5293Y128625D01*
X-3770Y130609D01*
X-2813Y132920D01*
X-2486Y135400D01*
X-2813Y137880D01*
X-3770Y140191D01*
X-5293Y142176D01*
X-7277Y143698D01*
X-9588Y144656D01*
X-12068Y144982D01*
D02*
G37*
G36*
X13332D02*
X10852Y144656D01*
X8541Y143698D01*
X6557Y142176D01*
X5034Y140191D01*
X4076Y137880D01*
X3750Y135400D01*
X4076Y132920D01*
X5034Y130609D01*
X6557Y128625D01*
X8541Y127102D01*
X10852Y126145D01*
X13332Y125818D01*
X15812Y126145D01*
X18123Y127102D01*
X20107Y128625D01*
X21630Y130609D01*
X22587Y132920D01*
X22914Y135400D01*
X22587Y137880D01*
X21630Y140191D01*
X20107Y142176D01*
X18123Y143698D01*
X15812Y144656D01*
X13332Y144982D01*
D02*
G37*
G36*
X-120040Y145390D02*
X-139040D01*
Y126390D01*
X-120040D01*
Y145390D01*
D02*
G37*
G36*
X-227330Y163252D02*
X-229810Y162925D01*
X-232121Y161968D01*
X-234105Y160445D01*
X-235628Y158461D01*
X-236586Y156150D01*
X-236912Y153670D01*
X-236586Y151190D01*
X-235628Y148879D01*
X-234105Y146895D01*
X-232121Y145372D01*
X-229810Y144415D01*
X-227330Y144088D01*
X-224850Y144415D01*
X-222539Y145372D01*
X-220555Y146895D01*
X-219032Y148879D01*
X-218074Y151190D01*
X-217748Y153670D01*
X-218074Y156150D01*
X-219032Y158461D01*
X-220555Y160445D01*
X-222539Y161968D01*
X-224850Y162925D01*
X-227330Y163252D01*
D02*
G37*
G36*
X-201930D02*
X-204410Y162925D01*
X-206721Y161968D01*
X-208705Y160445D01*
X-210228Y158461D01*
X-211185Y156150D01*
X-211512Y153670D01*
X-211185Y151190D01*
X-210228Y148879D01*
X-208705Y146895D01*
X-206721Y145372D01*
X-204410Y144415D01*
X-201930Y144088D01*
X-199450Y144415D01*
X-197139Y145372D01*
X-195154Y146895D01*
X-193632Y148879D01*
X-192675Y151190D01*
X-192348Y153670D01*
X-192675Y156150D01*
X-193632Y158461D01*
X-195154Y160445D01*
X-197139Y161968D01*
X-199450Y162925D01*
X-201930Y163252D01*
D02*
G37*
G36*
X241300Y154362D02*
X238820Y154036D01*
X236509Y153078D01*
X234525Y151556D01*
X233002Y149571D01*
X232045Y147260D01*
X231718Y144780D01*
X232045Y142300D01*
X233002Y139989D01*
X234525Y138005D01*
X236509Y136482D01*
X238820Y135525D01*
X241300Y135198D01*
X243780Y135525D01*
X246091Y136482D01*
X248075Y138005D01*
X249598Y139989D01*
X250555Y142300D01*
X250882Y144780D01*
X250555Y147260D01*
X249598Y149571D01*
X248075Y151556D01*
X246091Y153078D01*
X243780Y154036D01*
X241300Y154362D01*
D02*
G37*
G36*
X266700D02*
X264220Y154036D01*
X261909Y153078D01*
X259925Y151556D01*
X258402Y149571D01*
X257444Y147260D01*
X257118Y144780D01*
X257444Y142300D01*
X258402Y139989D01*
X259925Y138005D01*
X261909Y136482D01*
X264220Y135525D01*
X266700Y135198D01*
X269180Y135525D01*
X271491Y136482D01*
X273475Y138005D01*
X274998Y139989D01*
X275956Y142300D01*
X276282Y144780D01*
X275956Y147260D01*
X274998Y149571D01*
X273475Y151556D01*
X271491Y153078D01*
X269180Y154036D01*
X266700Y154362D01*
D02*
G37*
%LPD*%
D25*
X87630Y-97790D02*
Y-50800D01*
X78105Y-41275D02*
X87630Y-50800D01*
X105410Y210820D02*
Y230814D01*
X98745Y224149D01*
X92081Y230814D01*
Y210820D01*
X72087Y227481D02*
X75420Y230814D01*
X82084D01*
X85416Y227481D01*
Y214152D01*
X82084Y210820D01*
X75420D01*
X72087Y214152D01*
X65423Y230814D02*
Y210820D01*
X55426D01*
X52094Y214152D01*
Y217484D01*
X55426Y220817D01*
X65423D01*
X55426D01*
X52094Y224149D01*
Y227481D01*
X55426Y230814D01*
X65423D01*
X45429Y210820D02*
X38765D01*
X42097D01*
Y230814D01*
X45429Y227481D01*
X28768D02*
X25436Y230814D01*
X18771D01*
X15439Y227481D01*
Y224149D01*
X18771Y220817D01*
X22104D01*
X18771D01*
X15439Y217484D01*
Y214152D01*
X18771Y210820D01*
X25436D01*
X28768Y214152D01*
X8774Y210820D02*
X2110D01*
X5442D01*
Y230814D01*
X8774Y227481D01*
X-7887D02*
X-11219Y230814D01*
X-17884D01*
X-21216Y227481D01*
Y224149D01*
X-17884Y220817D01*
X-14551D01*
X-17884D01*
X-21216Y217484D01*
Y214152D01*
X-17884Y210820D01*
X-11219D01*
X-7887Y214152D01*
X213523Y215900D02*
X220188D01*
X223520Y219232D01*
Y225897D01*
X220188Y229229D01*
X213523D01*
X210191Y225897D01*
Y222565D01*
X223520D01*
X203526Y209235D02*
Y229229D01*
X193530D01*
X190197Y225897D01*
Y219232D01*
X193530Y215900D01*
X203526D01*
X180201D02*
Y232561D01*
Y225897D01*
X183533D01*
X176868D01*
X180201D01*
Y232561D01*
X176868Y235894D01*
D27*
X162560Y149860D02*
X170180Y142240D01*
X140970Y149860D02*
X162560D01*
X127000Y135890D02*
X140970Y149860D01*
X127000Y121920D02*
Y135890D01*
X-71120Y-76200D02*
X127000Y121920D01*
X-83820Y-100330D02*
Y26670D01*
X-147320Y-163830D02*
X-83820Y-100330D01*
X-147320Y-231140D02*
Y-163830D01*
Y-231140D02*
X-119380Y-259080D01*
X74930D01*
X139700Y-194310D01*
X-99060Y-135890D02*
X-91440D01*
X-109220Y-146050D02*
X-99060Y-135890D01*
X-109220Y-232410D02*
Y-146050D01*
X-166370Y-95250D02*
X-137160Y-124460D01*
X-166370Y-95250D02*
Y153670D01*
X12700Y161290D02*
X170180D01*
X204470Y127000D01*
X149860Y53340D02*
Y133350D01*
Y53340D02*
X181610Y21590D01*
X193040Y81280D02*
Y107950D01*
D29*
X-129540Y135890D02*
D03*
X266700Y170180D02*
D03*
X-227330Y52070D02*
D03*
X-110000Y63757D02*
D03*
X110000Y-63237D02*
D03*
D30*
X-129540Y161290D02*
D03*
X266700Y144780D02*
D03*
Y119380D02*
D03*
Y93980D02*
D03*
X241300Y170180D02*
D03*
Y144780D02*
D03*
Y119380D02*
D03*
Y93980D02*
D03*
X135890Y-105410D02*
D03*
X-201930Y153670D02*
D03*
X-227330D02*
D03*
X-201930Y128270D02*
D03*
X-227330D02*
D03*
X-201930Y102870D02*
D03*
X-227330D02*
D03*
X-201930Y77470D02*
D03*
X-227330D02*
D03*
X-201930Y52070D02*
D03*
X-118110Y274320D02*
D03*
X-241300Y-181610D02*
D03*
X-215900D02*
D03*
X-266700Y-207010D02*
D03*
X-241300D02*
D03*
X-215900D02*
D03*
X64138Y-135400D02*
D03*
Y-110000D02*
D03*
X38738Y-135400D02*
D03*
Y-110000D02*
D03*
X13338Y-135400D02*
D03*
Y-110000D02*
D03*
X-12062Y-135400D02*
D03*
Y-110000D02*
D03*
X-37462Y-135400D02*
D03*
Y-110000D02*
D03*
X-62862Y-135400D02*
D03*
X-62868Y135400D02*
D03*
Y110000D02*
D03*
X-37468Y135400D02*
D03*
Y110000D02*
D03*
X-12068Y135400D02*
D03*
Y110000D02*
D03*
X13332Y135400D02*
D03*
Y110000D02*
D03*
X38732Y135400D02*
D03*
Y110000D02*
D03*
X64132Y135400D02*
D03*
X-135400Y-63243D02*
D03*
X-110000D02*
D03*
X-135400Y-37843D02*
D03*
X-110000D02*
D03*
X-135400Y-12443D02*
D03*
X-110000D02*
D03*
X-135400Y12957D02*
D03*
X-110000D02*
D03*
X-135400Y38357D02*
D03*
X-110000D02*
D03*
X-135400Y63757D02*
D03*
X135400Y63763D02*
D03*
X110000D02*
D03*
X135400Y38363D02*
D03*
X110000D02*
D03*
X135400Y12963D02*
D03*
X110000D02*
D03*
X135400Y-12437D02*
D03*
X110000D02*
D03*
X135400Y-37837D02*
D03*
X110000D02*
D03*
X135400Y-63237D02*
D03*
X78105Y-41275D02*
D03*
X87630Y-97790D02*
D03*
X266700Y59690D02*
D03*
X170180Y142240D02*
D03*
X-71120Y-76200D02*
D03*
X-83820Y26670D02*
D03*
X139700Y-194310D02*
D03*
X-168910Y-168910D02*
D03*
X-92710D02*
D03*
X68580Y-158750D02*
D03*
X-91440Y-135890D02*
D03*
X-109220Y-232410D02*
D03*
X-137160Y-124460D02*
D03*
X-166370Y153670D02*
D03*
X12700Y161290D02*
D03*
X204470Y127000D02*
D03*
X149860Y133350D02*
D03*
X181610Y21590D02*
D03*
X193040Y107950D02*
D03*
Y81280D02*
D03*
D31*
X110490Y-105410D02*
D03*
X-92710Y274320D02*
D03*
X-62862Y-110000D02*
D03*
X64132Y110000D02*
D03*
D32*
X-266700Y-181610D02*
D03*
D33*
X-43450Y-179070D02*
D03*
D34*
X5350D02*
D03*
D35*
X-270510Y186690D02*
D03*
X-248920D02*
D03*
X-224790D02*
D03*
X-270510Y217170D02*
D03*
X-248920D02*
D03*
X-270510Y242570D02*
D03*
X-248920D02*
D03*
X-224790Y269240D02*
D03*
X-248920D02*
D03*
X-270510D02*
D03*
M02*
